<?xml version="1.0" encoding="UTF-8" standalone="no"?>
<!DOCTYPE svg PUBLIC "-//W3C//DTD SVG 1.1//EN" "http://www.w3.org/Graphics/SVG/1.1/DTD/svg11.dtd">
<svg width="100%" height="100%" viewBox="0 0 1000 1000" version="1.1" xmlns="http://www.w3.org/2000/svg" xmlns:xlink="http://www.w3.org/1999/xlink" xml:space="preserve" xmlns:serif="http://www.serif.com/" style="fill-rule:evenodd;clip-rule:evenodd;stroke-linecap:round;stroke-linejoin:round;stroke-miterlimit:2;">
    <g transform="matrix(1,0,0,1,-24.984782,23.873649)">
        <g transform="matrix(1.195918,0,0,1.195918,-268.788797,-141.056517)">
            <g>
                <g transform="matrix(0.447601,0,0,0.441683,233.091965,341.475862)">
                    <path d="M492.604,628.748C442.534,609.704 424.793,608.427 351.846,621.679C270.358,636.483 226.132,527.962 228,466C229.567,414.011 296.937,385.608 292.918,337.424C288.209,280.974 402.677,240.893 468.758,240.893C524.365,240.893 524.607,284.99 567.093,314.323C570.71,316.82 588.616,315.893 591.945,315.893C674.732,315.893 727,381.213 727,464C727,546.787 702.754,578.03 629.308,598.855C628.432,599.103 581.904,662.712 492.604,628.748Z" style="fill:rgb(0,151,100);"/>
                </g>
                <g transform="matrix(0.194824,0.402977,-0.397649,0.192248,574.665652,229.503538)">
                    <path d="M492.604,628.748C442.534,609.704 424.793,608.427 351.846,621.679C270.358,636.483 226.132,527.962 228,466C229.567,414.011 296.937,385.608 292.918,337.424C288.209,280.974 402.677,240.893 468.758,240.893C524.365,240.893 524.607,284.99 567.093,314.323C570.71,316.82 588.616,315.893 591.945,315.893C674.732,315.893 727,381.213 727,464C727,546.787 702.754,578.03 629.308,598.855C628.432,599.103 581.904,662.712 492.604,628.748Z" style="fill:rgb(29,200,142);"/>
                </g>
            </g>
            <g transform="matrix(3.412078,0,0,3.374331,-1423.499427,-998.599232)">
                <g transform="matrix(50,0,0,50,711.006848,451.888097)">
                </g>
                <text x="598.702px" y="451.888px" style="font-family:'MononokiNF-Regular', 'Mononoki Nerd Font', monospace;font-size:50px;fill:rgb(29,200,142);">clay</text>
                <path d="M623.137,431.616L623.136,431.619C622.763,432.597 622.086,433.048 621.163,433.048C620.777,433.048 620.471,432.977 620.238,432.874C618.322,432.179 616.483,431.827 614.718,431.827C612.681,431.827 611.051,432.407 609.849,433.624C608.619,434.869 608.073,436.902 608.073,439.681C608.073,442.46 608.619,444.493 609.849,445.738C611.051,446.955 612.681,447.535 614.718,447.535C616.425,447.535 618.266,447.181 620.244,446.486C620.477,446.384 620.781,446.315 621.163,446.315C622.087,446.315 622.763,446.765 623.136,447.743L623.605,448.868C623.768,449.207 623.844,449.547 623.844,449.886C623.844,450.812 623.399,451.496 622.423,451.87C620.025,452.895 617.457,453.409 614.718,453.409C611.021,453.409 607.964,452.275 605.534,450.039C603.105,447.803 601.831,444.365 601.831,439.681C601.831,434.998 603.105,431.559 605.534,429.323C607.964,427.087 611.021,425.953 614.718,425.953C617.456,425.953 620.023,426.467 622.416,427.49C623.398,427.864 623.844,428.549 623.844,429.476C623.844,429.815 623.768,430.155 623.606,430.492L623.137,431.616ZM621.802,449.886C621.802,449.845 621.786,449.807 621.766,449.766C621.755,449.745 621.745,449.723 621.736,449.701L621.247,448.529L621.234,448.494C621.213,448.44 621.214,448.38 621.163,448.38C621.123,448.38 621.063,448.386 621.041,448.388C621.016,448.399 620.99,448.41 620.963,448.419C618.727,449.211 616.644,449.6 614.718,449.6C612.067,449.6 609.969,448.781 608.405,447.198C606.868,445.643 606.031,443.152 606.031,439.681C606.031,436.21 606.868,433.719 608.405,432.164C609.969,430.581 612.067,429.762 614.718,429.762C616.716,429.762 618.802,430.154 620.973,430.946C620.996,430.955 621.019,430.964 621.041,430.974C621.063,430.977 621.123,430.983 621.163,430.983C621.214,430.983 621.213,430.922 621.234,430.868L621.247,430.833L621.736,429.661C621.745,429.639 621.755,429.617 621.766,429.596C621.786,429.556 621.802,429.517 621.802,429.477C621.774,429.46 621.724,429.433 621.687,429.419C621.672,429.413 621.658,429.407 621.644,429.401C619.489,428.478 617.18,428.018 614.718,428.018C611.579,428.018 608.972,428.951 606.909,430.85C604.847,432.748 603.874,435.706 603.874,439.681C603.874,443.657 604.847,446.614 606.909,448.512C608.972,450.411 611.579,451.344 614.718,451.344C617.18,451.344 619.489,450.884 621.644,449.961C621.658,449.955 621.672,449.949 621.687,449.943C621.724,449.929 621.774,449.902 621.802,449.886ZM651.855,450.006L651.856,450.006C651.953,450.239 652.018,450.539 652.018,450.912C652.018,451.117 651.991,451.307 651.943,451.481L651.691,452.027C651.418,452.428 650.971,452.749 650.296,452.895C648.89,453.237 647.383,453.409 645.772,453.409C642.674,453.409 640.425,452.643 638.985,451.24C637.533,449.825 636.744,447.614 636.744,444.564L636.744,420.01L632.296,420.01C631.562,420.01 631.029,419.774 630.662,419.407C630.292,419.036 630.054,418.499 630.054,417.757L630.054,416.488C630.054,415.746 630.292,415.209 630.662,414.838C631.029,414.471 631.562,414.234 632.296,414.234L640.694,414.234C641.428,414.234 641.961,414.471 642.328,414.838C642.699,415.209 642.936,415.746 642.936,416.488L642.936,444.564C642.936,445.682 643.073,446.491 643.507,446.951C643.935,447.403 644.71,447.559 645.788,447.584C646.854,447.583 647.817,447.483 648.676,447.279C648.848,447.228 649.067,447.193 649.337,447.193C650.326,447.193 651.052,447.68 651.459,448.727C651.468,448.75 651.476,448.774 651.484,448.798L651.855,450.006ZM632.114,416.32C632.107,416.365 632.096,416.436 632.096,416.488L632.096,417.757C632.096,417.809 632.107,417.88 632.114,417.925C632.161,417.934 632.238,417.945 632.296,417.945L637.765,417.945C638.329,417.945 638.786,418.408 638.786,418.978L638.786,444.564C638.786,446.918 639.282,448.661 640.402,449.753C641.534,450.856 643.337,451.344 645.772,451.344C647.217,451.344 648.57,451.192 649.83,450.884L649.861,450.877C649.896,450.87 649.938,450.856 649.973,450.844C649.971,450.826 649.97,450.809 649.969,450.799C649.952,450.761 649.937,450.721 649.924,450.681L649.546,449.451C649.5,449.341 649.446,449.259 649.337,449.259C649.305,449.259 649.256,449.262 649.241,449.263C649.222,449.269 649.203,449.274 649.183,449.279C648.169,449.524 647.032,449.649 645.772,449.649L645.75,449.649C643.963,449.608 642.742,449.129 642.032,448.378C641.327,447.633 640.894,446.377 640.894,444.564L640.894,416.488C640.894,416.436 640.884,416.365 640.876,416.32C640.829,416.311 640.752,416.3 640.694,416.3L632.296,416.3C632.238,416.3 632.161,416.311 632.114,416.32ZM696.298,453.386C694.77,453.285 693.495,452.843 692.465,452.09C691.253,451.206 690.42,449.927 689.997,448.235L685.22,429.125C685.168,428.951 685.132,428.727 685.132,428.451C685.132,428.145 685.184,427.879 685.271,427.65L685.474,427.265L685.768,426.935C686.107,426.641 686.599,426.442 687.276,426.442L689.034,426.442C689.674,426.442 690.172,426.62 690.548,426.912C690.943,427.219 691.227,427.664 691.349,428.271L696.079,447.093L696.087,447.128C696.13,447.331 696.213,447.496 696.357,447.612C696.518,447.741 696.735,447.779 696.993,447.779L697.712,447.779L702.595,428.246L702.604,428.213C702.772,427.624 703.072,427.195 703.465,426.901C703.852,426.611 704.343,426.442 704.952,426.442L706.71,426.442C707.325,426.442 707.808,426.639 708.177,426.978L708.45,427.288L708.653,427.655C708.751,427.892 708.805,428.157 708.805,428.451C708.805,428.728 708.77,428.953 708.718,429.124L702.67,453.12L702.67,453.122C701.605,457.311 700.166,460.317 698.415,462.172C696.571,464.125 694.085,465.128 690.938,465.128C689.082,465.128 686.983,464.723 684.645,463.898C684.613,463.887 684.581,463.874 684.551,463.859C683.548,463.387 683.13,462.675 683.13,461.849C683.13,461.751 683.161,461.501 683.259,461.108C683.268,461.074 683.278,461.04 683.29,461.008L683.728,459.789C684.099,458.743 684.79,458.277 685.714,458.277C686.099,458.277 686.405,458.348 686.639,458.451C687.29,458.685 688.021,458.866 688.831,458.999C689.662,459.135 690.364,459.205 690.938,459.205C692.309,459.205 693.419,458.714 694.263,457.713C695.064,456.762 695.732,455.315 696.298,453.386ZM685.723,460.337C685.729,460.331 685.733,460.321 685.733,460.321C685.733,460.321 685.729,460.327 685.723,460.337ZM685.186,461.844C685.204,461.861 685.23,461.883 685.25,461.897C685.287,461.922 685.327,461.945 685.372,461.967C687.439,462.692 689.294,463.063 690.938,463.063C693.456,463.063 695.463,462.308 696.938,460.745C698.507,459.084 699.738,456.362 700.692,452.608L706.746,428.586C706.75,428.571 706.754,428.555 706.759,428.54C706.759,428.532 706.76,428.517 706.761,428.5C706.746,428.502 706.728,428.507 706.71,428.507L704.952,428.507C704.844,428.507 704.75,428.508 704.682,428.56C704.622,428.605 704.596,428.681 704.571,428.77L699.497,449.065C699.382,449.523 698.974,449.844 698.507,449.844L696.993,449.844C696.209,449.844 695.58,449.623 695.09,449.231C694.588,448.829 694.249,448.285 694.095,447.585L689.363,428.754C689.358,428.734 689.354,428.715 689.35,428.695C689.339,428.636 689.333,428.582 689.3,428.547C689.244,428.485 689.146,428.507 689.034,428.507L687.276,428.507C687.247,428.507 687.211,428.509 687.177,428.513C687.178,428.525 687.178,428.534 687.179,428.54C687.184,428.556 687.188,428.572 687.192,428.588L691.977,447.729C692.27,448.901 692.821,449.803 693.66,450.416C694.528,451.05 695.643,451.344 696.993,451.344L697.628,451.344C697.942,451.344 698.239,451.49 698.433,451.741C698.626,451.991 698.695,452.318 698.619,452.627C697.886,455.592 696.934,457.726 695.817,459.052C694.577,460.524 692.954,461.27 690.938,461.27C690.276,461.27 689.464,461.194 688.505,461.037C687.542,460.88 686.676,460.659 685.905,460.379C685.882,460.371 685.858,460.361 685.836,460.351C685.815,460.349 685.76,460.343 685.72,460.343C685.702,460.376 685.667,460.439 685.65,460.487L685.648,460.493L685.227,461.664C685.211,461.73 685.196,461.795 685.186,461.844ZM678.825,450.472C678.825,451.163 678.615,451.689 678.27,452.078C677.93,452.46 677.437,452.73 676.757,452.815L676.753,452.816C673.481,453.212 670.82,453.409 668.771,453.409C666.506,453.409 664.548,453.06 662.893,452.381C661.148,451.664 659.845,450.685 658.964,449.472C658.047,448.212 657.593,446.835 657.593,445.345C657.593,443.855 658.047,442.478 658.964,441.218C659.844,440.008 661.153,439.02 662.913,438.287C664.584,437.591 666.584,437.233 668.917,437.233L672.632,437.233L672.632,436.312C672.632,434.654 672.276,433.448 671.407,432.75C670.478,432.004 669.086,431.68 667.257,431.68C665.982,431.68 664.567,431.838 663.012,432.149C662.987,432.154 662.963,432.158 662.939,432.161L662.548,432.21C662.507,432.215 662.465,432.217 662.423,432.217C661.829,432.217 661.371,432.035 661.027,431.738C660.684,431.442 660.434,431.013 660.34,430.42C660.338,430.404 660.336,430.388 660.334,430.373L660.187,429.054C660.183,429.016 660.181,428.977 660.181,428.939L660.181,428.646C660.181,428.032 660.359,427.569 660.635,427.231C660.908,426.898 661.326,426.631 661.932,426.51C664.117,426.073 666.201,425.856 668.185,425.856C671.651,425.856 674.263,426.727 676.049,428.37C677.856,430.032 678.825,432.664 678.825,436.312L678.825,450.472ZM662.229,428.564C662.226,428.591 662.223,428.622 662.223,428.646L662.223,428.881L662.36,430.111C662.363,430.123 662.366,430.136 662.369,430.149C662.373,430.149 662.376,430.15 662.379,430.15L662.65,430.116C664.336,429.781 665.872,429.615 667.257,429.615C669.659,429.615 671.457,430.154 672.677,431.133C673.957,432.161 674.674,433.868 674.674,436.312L674.674,438.265C674.674,438.835 674.217,439.298 673.653,439.298L668.917,439.298C666.888,439.298 665.145,439.591 663.691,440.196C662.326,440.765 661.291,441.503 660.609,442.441C659.963,443.329 659.635,444.296 659.635,445.345C659.635,446.394 659.963,447.361 660.609,448.249C661.289,449.185 662.314,449.914 663.661,450.468C665.099,451.058 666.803,451.344 668.771,451.344C670.758,451.344 673.337,451.15 676.507,450.766C676.612,450.753 676.707,450.768 676.749,450.7C676.785,450.641 676.783,450.562 676.783,450.472L676.783,436.312C676.783,433.384 676.124,431.231 674.675,429.898C673.207,428.547 671.033,427.921 668.185,427.921C666.327,427.921 664.375,428.126 662.328,428.536C662.298,428.542 662.26,428.553 662.229,428.564ZM661.792,445.394C661.792,444.119 662.441,442.999 663.87,442.119C665.054,441.391 666.731,440.992 668.917,440.992L673.653,440.992C674.217,440.992 674.674,441.455 674.674,442.025L674.674,448.421C674.674,448.956 674.271,449.402 673.745,449.45C671.554,449.649 669.993,449.747 669.063,449.747C666.818,449.747 665.105,449.36 663.91,448.654C662.452,447.792 661.792,446.675 661.792,445.394ZM663.835,445.394C663.835,446.002 664.248,446.462 664.94,446.871C665.893,447.434 667.272,447.682 669.063,447.682C669.819,447.682 671.009,447.612 672.632,447.475L672.632,443.057L668.917,443.057C667.196,443.057 665.863,443.31 664.931,443.883C664.243,444.307 663.835,444.78 663.835,445.394Z" style="fill:rgb(29,200,142);"/>
            </g>
            <g transform="matrix(3.412078,0,0,3.374331,-1416.810006,-915.817648)">
                <g transform="matrix(30.97568,0,0,30.97568,668.276443,451.888097)">
                </g>
                <text x="598.702px" y="451.888px" style="font-family:'MononokiNF-Regular', 'Mononoki Nerd Font', monospace;font-size:30.976px;fill:rgb(0,151,100);stroke:rgb(0,151,100);stroke-width:0.05px;">oven</text>
            </g>
        </g>
    </g>
</svg>
